<?xml version="1.0" encoding="utf-8"?>
<!-- Svg Vector Icons : http://www.onlinewebfonts.com/icon -->
<!DOCTYPE svg PUBLIC "-//W3C//DTD SVG 1.1//EN" "http://www.w3.org/Graphics/SVG/1.1/DTD/svg11.dtd">
<svg version="1.1" xmlns="http://www.w3.org/2000/svg" xmlns:xlink="http://www.w3.org/1999/xlink" x="0px" y="0px" viewBox="0 0 256 256" enable-background="new 0 0 256 256" xml:space="preserve">
<metadata> Svg Vector Icons : http://www.onlinewebfonts.com/icon </metadata>
<g><g><path fill="#000000" d="M105.9,223.4c-0.7,0-1.2,0.1-1.6,0.1c-13.1,0.1-26.2-0.6-39.3-1.9c-9.5-0.9-19.1-1.8-28.5-3.1c-6.5-0.8-12.9-2.3-19.4-3.5c-2.9-0.5-4.4-2.5-5.2-5.3c-1.7-6.2-2.1-12.5-1.5-18.8c0.3-3.8,0.7-7.5,1.2-11.3c1-6.7,5.1-11.3,10.7-14.8c4.8-3,10.2-4.2,15.5-5.9c5.6-1.7,11.3-3.3,16.7-5.5c5.6-2.2,10.6-5.5,14.3-10.5c1.9-2.6,2.9-5.6,2.8-8.9c-0.1-2.3-0.2-4.7-0.5-7.1c-0.3-2.8-1.7-5.2-3.8-7.1c-1.4-1.3-2.8-2.6-4.3-3.8c-3.3-2.4-5.5-5.6-6.9-9.3c-1-2.6-1.9-5.3-2.9-8c-0.2-0.5-0.6-1.2-1.1-1.4c-2.8-1.1-4.7-3.2-6.1-5.7c-3.6-7-4-13.9,1.1-20.5c0.3-0.4,0.4-1.1,0.4-1.6c0.5-6.2,0.6-12.4,1.4-18.5c1-7.2,2.6-14.3,6.1-20.7c7.1-13,17.9-21.1,32.5-23.8c15.7-2.9,30.6-0.3,44.4,7.7c8,4.6,13.3,11.4,16.7,19.7c3.4,8.5,5.2,17.3,5.8,26.4c0.2,3.2,0.3,6.5,0.5,9.7c0,0.4,0.1,1,0.4,1.2c2.9,2.7,3.8,6.1,3.7,9.9c-0.1,4.1-0.6,8.1-3.1,11.6c-1.4,2-3.2,3.5-5.4,4.5c-0.5,0.3-1.1,0.8-1.3,1.4c-0.9,2.4-1.7,4.8-2.6,7.2c-0.2,0.5-0.7,1.1-1.2,1.3c-10.8,4.5-20.1,11-28.1,19.4c-11.4,11.9-18.7,25.9-21.4,42.2c-3.1,18.5,0.1,35.9,9,52.3C105.2,222,105.5,222.6,105.9,223.4z"/><path fill="#000000" d="M176.9,112.3c-38.1,0-69.1,30.9-69.1,69c0,38.1,31,69.1,69.2,69.1c38,0,69-30.9,69-68.9C246.1,143.3,215.1,112.3,176.9,112.3z M222.5,161.5l-54.7,55.4c0-0.1,0.1-0.1,0.2-0.2c-1.8,1.9-3.2-0.1-3.2-0.1l-36-35.8c-1.2-1.2-1.2-3.1,0-4.3l8.6-8.8c1.2-1.2,3.1-1.2,4.3,0l25,25l43.1-43.9c1.2-1.2,3.1-1.2,4.2,0l8.5,8.5C223.6,158.4,223.6,160.3,222.5,161.5L222.5,161.5L222.5,161.5z"/></g></g>
</svg>